<svg xmlns="http://www.w3.org/2000/svg" version="1.1" xmlns:xlink="http://www.w3.org/1999/xlink" xmlns:svgjs="http://svgjs.com/svgjs" width="2000" height="1500" preserveAspectRatio="none" viewBox="0 0 2000 1500"><g mask="url(&quot;#SvgjsMask1010&quot;)" fill="none"><rect width="2000" height="1500" x="0" y="0" fill="#0e2a47"></rect><path d="M1642 1038L1641 251" stroke-width="8" stroke="url(#SvgjsLinearGradient1011)" stroke-linecap="round" class="Down"></path><path d="M839 448L838 -178" stroke-width="6" stroke="url(#SvgjsLinearGradient1011)" stroke-linecap="round" class="Down"></path><path d="M801 1473L800 1072" stroke-width="8" stroke="url(#SvgjsLinearGradient1012)" stroke-linecap="round" class="Up"></path><path d="M1099 388L1098 -372" stroke-width="8" stroke="url(#SvgjsLinearGradient1012)" stroke-linecap="round" class="Up"></path><path d="M1756 931L1755 22" stroke-width="8" stroke="url(#SvgjsLinearGradient1012)" stroke-linecap="round" class="Up"></path><path d="M1148 145L1147 522" stroke-width="8" stroke="url(#SvgjsLinearGradient1012)" stroke-linecap="round" class="Up"></path><path d="M1309 481L1308 1407" stroke-width="10" stroke="url(#SvgjsLinearGradient1011)" stroke-linecap="round" class="Down"></path><path d="M76 270L75 -400" stroke-width="10" stroke="url(#SvgjsLinearGradient1011)" stroke-linecap="round" class="Down"></path><path d="M73 61L72 910" stroke-width="6" stroke="url(#SvgjsLinearGradient1011)" stroke-linecap="round" class="Down"></path><path d="M1152 999L1151 368" stroke-width="8" stroke="url(#SvgjsLinearGradient1012)" stroke-linecap="round" class="Up"></path><path d="M1063 801L1062 177" stroke-width="10" stroke="url(#SvgjsLinearGradient1011)" stroke-linecap="round" class="Down"></path><path d="M445 1280L444 613" stroke-width="10" stroke="url(#SvgjsLinearGradient1012)" stroke-linecap="round" class="Up"></path><path d="M948 1289L947 2376" stroke-width="10" stroke="url(#SvgjsLinearGradient1012)" stroke-linecap="round" class="Up"></path><path d="M354 338L353 -209" stroke-width="10" stroke="url(#SvgjsLinearGradient1011)" stroke-linecap="round" class="Down"></path><path d="M738 607L737 1698" stroke-width="10" stroke="url(#SvgjsLinearGradient1012)" stroke-linecap="round" class="Up"></path><path d="M920 178L919 -679" stroke-width="6" stroke="url(#SvgjsLinearGradient1011)" stroke-linecap="round" class="Down"></path><path d="M456 980L455 2065" stroke-width="10" stroke="url(#SvgjsLinearGradient1012)" stroke-linecap="round" class="Up"></path><path d="M1866 759L1865 107" stroke-width="6" stroke="url(#SvgjsLinearGradient1011)" stroke-linecap="round" class="Down"></path><path d="M946 1096L945 2041" stroke-width="8" stroke="url(#SvgjsLinearGradient1012)" stroke-linecap="round" class="Up"></path><path d="M632 1457L631 2446" stroke-width="8" stroke="url(#SvgjsLinearGradient1012)" stroke-linecap="round" class="Up"></path><path d="M1443 1398L1442 2156" stroke-width="10" stroke="url(#SvgjsLinearGradient1012)" stroke-linecap="round" class="Up"></path><path d="M1533 502L1532 120" stroke-width="10" stroke="url(#SvgjsLinearGradient1012)" stroke-linecap="round" class="Up"></path><path d="M1480 1436L1479 340" stroke-width="10" stroke="url(#SvgjsLinearGradient1012)" stroke-linecap="round" class="Up"></path><path d="M520 445L519 1061" stroke-width="6" stroke="url(#SvgjsLinearGradient1011)" stroke-linecap="round" class="Down"></path><path d="M665 866L664 1776" stroke-width="8" stroke="url(#SvgjsLinearGradient1011)" stroke-linecap="round" class="Down"></path><path d="M436 1086L435 1849" stroke-width="6" stroke="url(#SvgjsLinearGradient1011)" stroke-linecap="round" class="Down"></path><path d="M545 1219L544 228" stroke-width="10" stroke="url(#SvgjsLinearGradient1012)" stroke-linecap="round" class="Up"></path><path d="M737 1226L736 2292" stroke-width="10" stroke="url(#SvgjsLinearGradient1012)" stroke-linecap="round" class="Up"></path><path d="M324 525L323 -526" stroke-width="8" stroke="url(#SvgjsLinearGradient1011)" stroke-linecap="round" class="Down"></path><path d="M686 1345L685 960" stroke-width="10" stroke="url(#SvgjsLinearGradient1011)" stroke-linecap="round" class="Down"></path><path d="M1491 558L1490 137" stroke-width="10" stroke="url(#SvgjsLinearGradient1012)" stroke-linecap="round" class="Up"></path><path d="M1839 910L1838 1730" stroke-width="8" stroke="url(#SvgjsLinearGradient1011)" stroke-linecap="round" class="Down"></path><path d="M1459 394L1458 1392" stroke-width="6" stroke="url(#SvgjsLinearGradient1012)" stroke-linecap="round" class="Up"></path><path d="M61 489L60 -161" stroke-width="6" stroke="url(#SvgjsLinearGradient1012)" stroke-linecap="round" class="Up"></path><path d="M220 373L219 -710" stroke-width="8" stroke="url(#SvgjsLinearGradient1012)" stroke-linecap="round" class="Up"></path><path d="M1115 170L1114 1055" stroke-width="8" stroke="url(#SvgjsLinearGradient1012)" stroke-linecap="round" class="Up"></path><path d="M113 1385L112 2140" stroke-width="6" stroke="url(#SvgjsLinearGradient1012)" stroke-linecap="round" class="Up"></path><path d="M1457 486L1456 -240" stroke-width="8" stroke="url(#SvgjsLinearGradient1012)" stroke-linecap="round" class="Up"></path><path d="M1116 1155L1115 193" stroke-width="8" stroke="url(#SvgjsLinearGradient1012)" stroke-linecap="round" class="Up"></path><path d="M458 768L457 -355" stroke-width="6" stroke="url(#SvgjsLinearGradient1011)" stroke-linecap="round" class="Down"></path><path d="M864 1210L863 635" stroke-width="10" stroke="url(#SvgjsLinearGradient1011)" stroke-linecap="round" class="Down"></path><path d="M1255 69L1254 950" stroke-width="6" stroke="url(#SvgjsLinearGradient1012)" stroke-linecap="round" class="Up"></path><path d="M1014 277L1013 -732" stroke-width="10" stroke="url(#SvgjsLinearGradient1011)" stroke-linecap="round" class="Down"></path><path d="M1799 184L1798 1223" stroke-width="6" stroke="url(#SvgjsLinearGradient1011)" stroke-linecap="round" class="Down"></path><path d="M593 482L592 932" stroke-width="6" stroke="url(#SvgjsLinearGradient1011)" stroke-linecap="round" class="Down"></path><path d="M1045 1239L1044 2260" stroke-width="6" stroke="url(#SvgjsLinearGradient1011)" stroke-linecap="round" class="Down"></path><path d="M284 1494L283 2279" stroke-width="8" stroke="url(#SvgjsLinearGradient1012)" stroke-linecap="round" class="Up"></path><path d="M281 1334L280 261" stroke-width="10" stroke="url(#SvgjsLinearGradient1012)" stroke-linecap="round" class="Up"></path><path d="M393 151L392 -499" stroke-width="10" stroke="url(#SvgjsLinearGradient1011)" stroke-linecap="round" class="Down"></path><path d="M623 777L622 49" stroke-width="8" stroke="url(#SvgjsLinearGradient1011)" stroke-linecap="round" class="Down"></path></g><defs><mask id="SvgjsMask1010"><rect width="2000" height="1500" fill="#ffffff"></rect></mask><linearGradient x1="0%" y1="0%" x2="0%" y2="100%" id="SvgjsLinearGradient1011"><stop stop-color="rgba(28, 83, 142, 0)" offset="0"></stop><stop stop-color="#1c538e" offset="1"></stop></linearGradient><linearGradient x1="0%" y1="100%" x2="0%" y2="0%" id="SvgjsLinearGradient1012"><stop stop-color="rgba(28, 83, 142, 0)" offset="0"></stop><stop stop-color="#1c538e" offset="1"></stop></linearGradient></defs></svg>