<?xml version="1.0" encoding="UTF-8" standalone="no"?>
<svg
   xmlns:dc="http://purl.org/dc/elements/1.1/"
   xmlns:cc="http://creativecommons.org/ns#"
   xmlns:rdf="http://www.w3.org/1999/02/22-rdf-syntax-ns#"
   xmlns:svg="http://www.w3.org/2000/svg"
   xmlns="http://www.w3.org/2000/svg"
   id="svg28"
   xml:space="preserve"
   viewBox="0 0 550 445"
   height="445"
   width="550"
   version="1.1"><metadata
     id="metadata32"><rdf:RDF><cc:Work
         rdf:about=""><dc:format>image/svg+xml</dc:format><dc:type
           rdf:resource="http://purl.org/dc/dcmitype/StillImage" /></cc:Work></rdf:RDF></metadata><defs
     id="defs4"><style
       id="style2"
       type="text/css">@import url(&quot;https://fonts.googleapis.com/css2?family=Plaster:wght@400&quot;);</style></defs><defs
     id="defs6" /><g
     id="separator"
     transform="matrix(1 0 0 1 275.5 269.01)"><linearGradient
       y2="5"
       x2="139.58138946173776"
       y1="0"
       x1="0"
       gradientTransform="matrix(1 0 0 1 -69.79 -2.5)"
       gradientUnits="userSpaceOnUse"
       id="SVGID_23"><stop
         id="stop8"
         style="stop-color:rgb(245,245,245);stop-opacity: 1"
         offset="0%" /></linearGradient><rect
       id="rect11"
       height="5"
       width="139.58138946173776"
       ry="0"
       rx="0"
       y="-2.5"
       x="-69.79069473086888"
       style="stroke: none; stroke-width: 1; stroke-dasharray: none; stroke-linecap: butt; stroke-dashoffset: 0; stroke-linejoin: miter; stroke-miterlimit: 4; fill: url(#SVGID_23); fill-rule: nonzero; opacity: 1;" /></g><g
     id="icon"
     transform="matrix(1.22 0 0 1.22 275 185)"><linearGradient
       y2="95.66499999999999"
       x2="95.084"
       y1="0"
       x1="0"
       gradientTransform="matrix(1 0 0 1 0.29 0)"
       gradientUnits="userSpaceOnUse"
       id="SVGID_16"><stop
         id="stop14"
         style="stop-color:rgb(245,245,245);stop-opacity: 1"
         offset="0%" /></linearGradient><path
       id="path17"
       stroke-linecap="round"
       d="M 59.564 78.158 c -12.783 0 -24.225 -6.518 -31.924 -16.788 c 5.775 3.958 12.542 6.237 19.778 6.237 c 21.176 0 38.342 -17.014 38.342 -43.547 c 0 14.304 -11.596 25.899 -25.898 25.899 c -14.303 0 -25.899 -11.595 -25.899 -25.898 c 0 -10.869 6.698 -20.168 16.188 -24.01 C 49.478 0.023 48.804 0 48.124 0 c -9.038 0 -17.487 2.511 -24.695 6.869 c 0.002 -0.003 0.003 -0.006 0.005 -0.009 C 9.564 15.235 0.291 30.45 0.291 47.832 c 0 26.418 21.416 47.833 47.833 47.833 c 23.879 0 43.669 -17.5 47.251 -40.373 C 87.994 69.007 74.718 78.158 59.564 78.158 z"
       transform=" translate(-47.83, -47.83)"
       style="stroke: none; stroke-width: 1; stroke-dasharray: none; stroke-linecap: butt; stroke-dashoffset: 0; stroke-linejoin: miter; stroke-miterlimit: 4; fill: url(#SVGID_16); fill-rule: nonzero; opacity: 1;" /></g><g
     id="logo-name"
     style=""
     transform="matrix(0 0 0 0 275 306.01)"><linearGradient
       y2="33.89999999999999"
       x2="0"
       y1="0"
       x1="0"
       gradientTransform="matrix(1 0 0 1 -76.1 -16.95)"
       gradientUnits="userSpaceOnUse"
       id="SVGID_2"><stop
         id="stop20"
         style="stop-color:rgb(245,245,245);stop-opacity: 1"
         offset="0%" /></linearGradient><text
       id="text25"
       style="stroke: none; stroke-width: 1; stroke-dasharray: none; stroke-linecap: butt; stroke-dashoffset: 0; stroke-linejoin: miter; stroke-miterlimit: 4; fill: url(#SVGID_2); fill-rule: nonzero; opacity: 1; white-space: pre;"
       font-weight="normal"
       font-style="normal"
       font-size="30"
       font-family="Plaster"
       xml:space="preserve"><tspan
         id="tspan23"
         y="9.42"
         x="-76.1">MRSDTS</tspan></text>
</g></svg>